<?xml version="1.0" encoding="utf-8"?>
<!-- Generator: Adobe Illustrator 19.1.0, SVG Export Plug-In . SVG Version: 6.00 Build 0)  -->
<svg version="1.1" xmlns="http://www.w3.org/2000/svg" xmlns:xlink="http://www.w3.org/1999/xlink" x="0px" y="0px"
	 viewBox="0 0 128 128" style="enable-background:new 0 0 128 128;" xml:space="preserve">
<style type="text/css">
	.st0{fill:none;}
	.st1{display:none;}
</style>
<g id="レイヤー_1">
	<g>
		<rect x="1" class="st0" width="128" height="128"/>
		<path d="M41.6,44.8h-4.7l-13-30h-0.2l-13,30H5.9l15.7-35h4.3L41.6,44.8z"/>
		<path d="M118.5,44.8h-4.7l-13-30h-0.2l-13,30h-4.7l15.7-35h4.3L118.5,44.8z"/>
	</g>
	<g>
		<rect x="-3" y="2" class="st0" width="128" height="128"/>
		<path d="M73.4,115.6c-6.8-8-17.3-18-26.5-25.1c-3.4-2.7-4.6-4.6-4.6-7c0-2,1.1-3.8,3.6-6.1c6.1-5.7,17.7-16.6,24.2-23.2l5.7,3.8
			c-0.1,0.1-0.6,0.7-1.5,0.7c-0.3,0-0.5-0.1-0.8-0.1c-6.8,6.5-17.3,15.7-22.8,20.9c-1.6,1.6-2.9,2.9-2.9,4c0,1.1,1.2,2.5,3.6,4.3
			c8.9,6.9,18.4,15.6,26.7,24.5L73.4,115.6z"/>
	</g>
	<g>
	</g>
</g>
<g id="レイヤー_2" class="st1">
</g>
</svg>
